{
  "accessors": [
    {
      "bufferView": 2,
      "componentType": 5126,
      "count": 65532,
      "max": [
        15.180912971496582,
        20.1815185546875,
        14.835538864135742
      ],
      "min": [
        -15.683399200439453,
        -18.808954238891602,
        -0.051340103149414062
      ],
      "type": "VEC3"
    },
    {
      "bufferView": 2,
      "byteOffset": 786384,
      "componentType": 5126,
      "count": 65532,
      "max": [
        0.99999988079071045,
        0.99831241369247437,
        0.99999874830245972
      ],
      "min": [
        -0.99967867136001587,
        -0.99980419874191284,
        -0.99978715181350708
      ],
      "type": "VEC3"
    },
    {
      "bufferView": 3,
      "componentType": 5126,
      "count": 65532,
      "max": [
        1,
        0.99711251258850098,
        0.99999970197677612,
        1
      ],
      "min": [
        -0.9999992847442627,
        -0.99319106340408325,
        -1,
        -1
      ],
      "type": "VEC4"
    },
    {
      "bufferView": 1,
      "componentType": 5126,
      "count": 65532,
      "max": [
        0.99983698129653931,
        0.99983698129653931
      ],
      "min": [
        0.00016300000424962491,
        0.33350598812103271
      ],
      "type": "VEC2"
    },
    {
      "bufferView": 0,
      "componentType": 5125,
      "count": 266610,
      "max": [
        65531
      ],
      "min": [
        0
      ],
      "type": "SCALAR"
    },
    {
      "bufferView": 2,
      "byteOffset": 1572768,
      "componentType": 5126,
      "count": 8047,
      "max": [
        15.147734642028809,
        16.254585266113281,
        14.721818923950195
      ],
      "min": [
        -15.221653938293457,
        -15.796202659606934,
        0.33128166198730469
      ],
      "type": "VEC3"
    },
    {
      "bufferView": 2,
      "byteOffset": 1669332,
      "componentType": 5126,
      "count": 8047,
      "max": [
        0.99995148181915283,
        0.99995839595794678,
        0.99999284744262695
      ],
      "min": [
        -0.99770015478134155,
        -0.99498897790908813,
        -0.90991580486297607
      ],
      "type": "VEC3"
    },
    {
      "bufferView": 3,
      "byteOffset": 1048512,
      "componentType": 5126,
      "count": 8047,
      "max": [
        1,
        0.91612672805786133,
        0.99993437528610229,
        -1
      ],
      "min": [
        -0.99999982118606567,
        -0.91043049097061157,
        -0.9999997615814209,
        -1
      ],
      "type": "VEC4"
    },
    {
      "bufferView": 1,
      "byteOffset": 524256,
      "componentType": 5126,
      "count": 8047,
      "max": [
        0.99917697906494141,
        0.66650402545928955
      ],
      "min": [
        0.00016300000424962491,
        0.00016799999866634607
      ],
      "type": "VEC2"
    },
    {
      "bufferView": 0,
      "byteOffset": 1066440,
      "componentType": 5125,
      "count": 33375,
      "max": [
        8046
      ],
      "min": [
        0
      ],
      "type": "SCALAR"
    }
  ],
  "asset": {
    "extras": {
      "author": "urbandrone (https://sketchfab.com/urbandrone)",
      "license": "CC-BY-4.0 (http://creativecommons.org/licenses/by/4.0/)",
      "source": "https://sketchfab.com/3d-models/rocks-7b3efea8a4544fd69752cc9c2e4dd646",
      "title": "Rocks"
    },
    "generator": "Sketchfab-5.97.1",
    "version": "2.0"
  },
  "bufferViews": [
    {
      "buffer": 0,
      "byteLength": 1199940,
      "byteOffset": 0,
      "name": "floatBufferViews",
      "target": 34963
    },
    {
      "buffer": 0,
      "byteLength": 588632,
      "byteOffset": 1199940,
      "byteStride": 8,
      "name": "floatBufferViews",
      "target": 34962
    },
    {
      "buffer": 0,
      "byteLength": 1765896,
      "byteOffset": 1788572,
      "byteStride": 12,
      "name": "floatBufferViews",
      "target": 34962
    },
    {
      "buffer": 0,
      "byteLength": 1177264,
      "byteOffset": 3554468,
      "byteStride": 16,
      "name": "floatBufferViews",
      "target": 34962
    }
  ],
  "buffers": [
    {
      "byteLength": 4731732,
      "uri": "scene.bin"
    }
  ],
  "images": [
    {
      "uri": "textures/model_Material_u1_v1_baseColor.jpeg"
    }
  ],
  "materials": [
    {
      "doubleSided": true,
      "emissiveFactor": [
        0,
        0,
        0
      ],
      "name": "model_Material_u1_v1",
      "pbrMetallicRoughness": {
        "baseColorFactor": [
          1,
          1,
          1,
          1
        ],
        "baseColorTexture": {
          "index": 0,
          "texCoord": 0
        },
        "metallicFactor": 0,
        "roughnessFactor": 1
      }
    }
  ],
  "meshes": [
    {
      "primitives": [
        {
          "attributes": {
            "NORMAL": 1,
            "POSITION": 0,
            "TANGENT": 2,
            "TEXCOORD_0": 3
          },
          "indices": 4,
          "material": 0,
          "mode": 4
        }
      ]
    },
    {
      "primitives": [
        {
          "attributes": {
            "NORMAL": 6,
            "POSITION": 5,
            "TANGENT": 7,
            "TEXCOORD_0": 8
          },
          "indices": 9,
          "material": 0,
          "mode": 4
        }
      ]
    }
  ],
  "nodes": [
    {
      "children": [
        1
      ],
      "name": "RootNode (gltf orientation matrix)",
      "rotation": [
        -0.70710678118654746,
        -0,
        -0,
        0.70710678118654757
      ]
    },
    {
      "children": [
        2
      ],
      "name": "RootNode (model correction matrix)"
    },
    {
      "children": [
        3,
        4
      ],
      "name": "model.obj.cleaner.materialmerger.gles"
    },
    {
      "mesh": 0,
      "name": ""
    },
    {
      "mesh": 1,
      "name": ""
    }
  ],
  "samplers": [
    {
      "magFilter": 9729,
      "minFilter": 9987,
      "wrapS": 10497,
      "wrapT": 10497
    }
  ],
  "scene": 0,
  "scenes": [
    {
      "name": "OSG_Scene",
      "nodes": [
        0
      ]
    }
  ],
  "textures": [
    {
      "sampler": 0,
      "source": 0
    }
  ]
}

